<svg xmlns="http://www.w3.org/2000/svg" viewBox="0 0 64 64" fill="none">
  <defs>
    <linearGradient id="bg" x1="32" y1="0" x2="32" y2="64" gradientUnits="userSpaceOnUse">
      <stop stop-color="#0E5F96" />
      <stop offset="1" stop-color="#041A2F" />
    </linearGradient>
  </defs>
  <rect width="64" height="64" rx="18" fill="url(#bg)" />
  <ellipse cx="32" cy="37" rx="14" ry="15" fill="#B00000" />
  <ellipse cx="32" cy="19" rx="11" ry="10" fill="#C91414" />
  <path d="M18 25L7 17L11 33L18 31V25Z" fill="#C91414" />
  <path d="M46 25L57 17L53 33L46 31V25Z" fill="#C91414" />
  <rect x="18" y="39" width="5" height="15" rx="2" fill="#C91414" />
  <rect x="25" y="41" width="5" height="13" rx="2" fill="#C91414" />
  <rect x="34" y="41" width="5" height="13" rx="2" fill="#C91414" />
  <rect x="41" y="39" width="5" height="15" rx="2" fill="#C91414" />
  <circle cx="27" cy="18" r="3.5" fill="#F4F8FF" />
  <circle cx="37" cy="18" r="3.5" fill="#F4F8FF" />
  <circle cx="27" cy="18" r="1.3" fill="#17324A" />
  <circle cx="37" cy="18" r="1.3" fill="#17324A" />
</svg>
